<svg width="253" height="49" viewBox="0 0 253 49" fill="none" xmlns="http://www.w3.org/2000/svg">
<rect y="0.466309" width="253" height="48" fill="white"/>
<path d="M23.184 30.4663V19.2663H30.112V20.3703H24.528V24.2743H29.632V25.3623H24.528V29.3623H30.112V30.4663H23.184ZM32.1353 30.4663V22.5303H33.3513L33.4473 23.6823C33.7033 23.2556 34.0446 22.925 34.4713 22.6903C34.8979 22.4556 35.3779 22.3383 35.9113 22.3383C36.5406 22.3383 37.0793 22.4663 37.5273 22.7223C37.9859 22.9783 38.3379 23.3676 38.5833 23.8903C38.8606 23.4103 39.2393 23.0316 39.7193 22.7543C40.2099 22.477 40.7379 22.3383 41.3033 22.3383C42.2526 22.3383 43.0099 22.6263 43.5753 23.2023C44.1406 23.7676 44.4233 24.6423 44.4233 25.8263V30.4663H43.0953V25.9703C43.0953 25.149 42.9299 24.5303 42.5993 24.1143C42.2686 23.6983 41.7939 23.4903 41.1753 23.4903C40.5353 23.4903 40.0019 23.741 39.5753 24.2423C39.1593 24.733 38.9513 25.437 38.9513 26.3543V30.4663H37.6073V25.9703C37.6073 25.149 37.4419 24.5303 37.1113 24.1143C36.7806 23.6983 36.3059 23.4903 35.6873 23.4903C35.0579 23.4903 34.5299 23.741 34.1033 24.2423C33.6873 24.733 33.4793 25.437 33.4793 26.3543V30.4663H32.1353ZM49.0878 30.6583C48.4264 30.6583 47.8771 30.5463 47.4398 30.3223C47.0024 30.0983 46.6771 29.7996 46.4638 29.4263C46.2504 29.053 46.1438 28.6476 46.1438 28.2103C46.1438 27.3996 46.4531 26.7756 47.0718 26.3383C47.6904 25.901 48.5331 25.6823 49.5998 25.6823H51.7438V25.5863C51.7438 24.893 51.5624 24.3703 51.1998 24.0183C50.8371 23.6556 50.3518 23.4743 49.7438 23.4743C49.2211 23.4743 48.7678 23.6076 48.3838 23.8743C48.0104 24.1303 47.7758 24.509 47.6798 25.0103H46.3038C46.3571 24.4343 46.5491 23.949 46.8798 23.5543C47.2211 23.1596 47.6424 22.861 48.1438 22.6583C48.6451 22.445 49.1784 22.3383 49.7438 22.3383C50.8531 22.3383 51.6851 22.637 52.2398 23.2343C52.8051 23.821 53.0878 24.605 53.0878 25.5863V30.4663H51.8878L51.8078 29.0423C51.5838 29.4903 51.2531 29.8743 50.8158 30.1943C50.3891 30.5036 49.8131 30.6583 49.0878 30.6583ZM49.2958 29.5223C49.8078 29.5223 50.2451 29.389 50.6078 29.1223C50.9811 28.8556 51.2638 28.509 51.4558 28.0823C51.6478 27.6556 51.7438 27.2076 51.7438 26.7383V26.7223H49.7118C48.9224 26.7223 48.3624 26.861 48.0318 27.1383C47.7118 27.405 47.5518 27.741 47.5518 28.1463C47.5518 28.5623 47.7011 28.8983 47.9998 29.1543C48.3091 29.3996 48.7411 29.5223 49.2958 29.5223ZM55.92 20.7703C55.6533 20.7703 55.4293 20.685 55.248 20.5143C55.0773 20.333 54.992 20.109 54.992 19.8423C54.992 19.5863 55.0773 19.373 55.248 19.2023C55.4293 19.0316 55.6533 18.9463 55.92 18.9463C56.176 18.9463 56.3947 19.0316 56.576 19.2023C56.7573 19.373 56.848 19.5863 56.848 19.8423C56.848 20.109 56.7573 20.333 56.576 20.5143C56.3947 20.685 56.176 20.7703 55.92 20.7703ZM55.248 30.4663V22.5303H56.592V30.4663H55.248ZM58.9321 30.4663V18.9463H60.2761V30.4663H58.9321ZM66.0894 30.4663L70.2174 19.2663H71.6414L75.7534 30.4663H74.3294L73.3054 27.5863H68.5374L67.4974 30.4663H66.0894ZM68.9374 26.4983H72.9054L70.9214 20.9623L68.9374 26.4983ZM80.5009 30.6583C79.7115 30.6583 79.0182 30.477 78.4209 30.1143C77.8342 29.7516 77.3755 29.2556 77.0449 28.6263C76.7249 27.997 76.5649 27.2823 76.5649 26.4823C76.5649 25.6823 76.7302 24.973 77.0609 24.3543C77.3915 23.725 77.8502 23.2343 78.4369 22.8823C79.0235 22.5196 79.7169 22.3383 80.5169 22.3383C81.1675 22.3383 81.7435 22.4716 82.2449 22.7383C82.7462 23.005 83.1355 23.3783 83.4129 23.8583V18.9463H84.7569V30.4663H83.5409L83.4129 29.1543C83.1569 29.5383 82.7889 29.885 82.3089 30.1943C81.8289 30.5036 81.2262 30.6583 80.5009 30.6583ZM80.6449 29.4903C81.1782 29.4903 81.6475 29.3676 82.0529 29.1223C82.4689 28.8663 82.7889 28.5143 83.0129 28.0663C83.2475 27.6183 83.3649 27.0956 83.3649 26.4983C83.3649 25.901 83.2475 25.3783 83.0129 24.9303C82.7889 24.4823 82.4689 24.1356 82.0529 23.8903C81.6475 23.6343 81.1782 23.5063 80.6449 23.5063C80.1222 23.5063 79.6529 23.6343 79.2369 23.8903C78.8315 24.1356 78.5115 24.4823 78.2769 24.9303C78.0529 25.3783 77.9409 25.901 77.9409 26.4983C77.9409 27.0956 78.0529 27.6183 78.2769 28.0663C78.5115 28.5143 78.8315 28.8663 79.2369 29.1223C79.6529 29.3676 80.1222 29.4903 80.6449 29.4903ZM90.5477 30.6583C89.7584 30.6583 89.0651 30.477 88.4678 30.1143C87.8811 29.7516 87.4224 29.2556 87.0918 28.6263C86.7718 27.997 86.6118 27.2823 86.6118 26.4823C86.6118 25.6823 86.7771 24.973 87.1078 24.3543C87.4384 23.725 87.8971 23.2343 88.4838 22.8823C89.0704 22.5196 89.7638 22.3383 90.5638 22.3383C91.2144 22.3383 91.7904 22.4716 92.2918 22.7383C92.7931 23.005 93.1824 23.3783 93.4598 23.8583V18.9463H94.8038V30.4663H93.5878L93.4598 29.1543C93.2038 29.5383 92.8358 29.885 92.3558 30.1943C91.8758 30.5036 91.2731 30.6583 90.5477 30.6583ZM90.6918 29.4903C91.2251 29.4903 91.6944 29.3676 92.0998 29.1223C92.5158 28.8663 92.8358 28.5143 93.0598 28.0663C93.2944 27.6183 93.4118 27.0956 93.4118 26.4983C93.4118 25.901 93.2944 25.3783 93.0598 24.9303C92.8358 24.4823 92.5158 24.1356 92.0998 23.8903C91.6944 23.6343 91.2251 23.5063 90.6918 23.5063C90.1691 23.5063 89.6998 23.6343 89.2838 23.8903C88.8784 24.1356 88.5584 24.4823 88.3238 24.9303C88.0998 25.3783 87.9878 25.901 87.9878 26.4983C87.9878 27.0956 88.0998 27.6183 88.3238 28.0663C88.5584 28.5143 88.8784 28.8663 89.2838 29.1223C89.6998 29.3676 90.1691 29.4903 90.6918 29.4903ZM96.9946 30.4663V22.5303H98.2106L98.3226 24.0503C98.568 23.5276 98.9413 23.1116 99.4426 22.8023C99.944 22.493 100.563 22.3383 101.299 22.3383V23.7463H100.931C100.461 23.7463 100.029 23.8316 99.6346 24.0023C99.24 24.1623 98.9253 24.4396 98.6906 24.8343C98.456 25.229 98.3386 25.773 98.3386 26.4663V30.4663H96.9946ZM106.078 30.6583C105.321 30.6583 104.649 30.4876 104.062 30.1463C103.476 29.7943 103.012 29.309 102.67 28.6903C102.34 28.0716 102.174 27.341 102.174 26.4983C102.174 25.6663 102.34 24.941 102.67 24.3223C103.001 23.693 103.46 23.2076 104.046 22.8663C104.644 22.5143 105.332 22.3383 106.11 22.3383C106.878 22.3383 107.54 22.5143 108.094 22.8663C108.66 23.2076 109.092 23.661 109.39 24.2263C109.689 24.7916 109.838 25.3996 109.838 26.0503C109.838 26.1676 109.833 26.285 109.822 26.4023C109.822 26.5196 109.822 26.653 109.822 26.8023H103.502C103.534 27.4103 103.673 27.917 103.918 28.3223C104.174 28.717 104.489 29.0156 104.862 29.2183C105.246 29.421 105.652 29.5223 106.078 29.5223C106.633 29.5223 107.097 29.3943 107.47 29.1383C107.844 28.8823 108.116 28.5356 108.286 28.0983H109.614C109.401 28.8343 108.99 29.4476 108.382 29.9383C107.785 30.4183 107.017 30.6583 106.078 30.6583ZM106.078 23.4743C105.438 23.4743 104.868 23.6716 104.366 24.0663C103.876 24.4503 103.593 25.0156 103.518 25.7623H108.51C108.478 25.0476 108.233 24.4876 107.774 24.0823C107.316 23.677 106.75 23.4743 106.078 23.4743ZM114.66 30.6583C113.71 30.6583 112.921 30.4183 112.292 29.9383C111.662 29.4583 111.294 28.8076 111.188 27.9863H112.564C112.649 28.4023 112.868 28.765 113.22 29.0743C113.582 29.373 114.068 29.5223 114.676 29.5223C115.241 29.5223 115.657 29.405 115.924 29.1703C116.19 28.925 116.324 28.637 116.324 28.3063C116.324 27.8263 116.148 27.5063 115.796 27.3463C115.454 27.1863 114.969 27.0423 114.34 26.9143C113.913 26.829 113.486 26.7063 113.06 26.5463C112.633 26.3863 112.276 26.1623 111.988 25.8743C111.7 25.5756 111.556 25.1863 111.556 24.7063C111.556 24.013 111.812 23.4476 112.324 23.0103C112.846 22.5623 113.55 22.3383 114.436 22.3383C115.278 22.3383 115.966 22.5516 116.5 22.9783C117.044 23.3943 117.358 23.9916 117.444 24.7703H116.116C116.062 24.365 115.886 24.0503 115.588 23.8263C115.3 23.5916 114.91 23.4743 114.42 23.4743C113.94 23.4743 113.566 23.5756 113.3 23.7783C113.044 23.981 112.916 24.2476 112.916 24.5783C112.916 24.8983 113.081 25.149 113.412 25.3303C113.753 25.5116 114.212 25.6663 114.788 25.7943C115.278 25.901 115.742 26.0343 116.18 26.1943C116.628 26.3436 116.99 26.573 117.268 26.8823C117.556 27.181 117.7 27.6183 117.7 28.1943C117.71 28.909 117.438 29.501 116.884 29.9703C116.34 30.429 115.598 30.6583 114.66 30.6583ZM122.66 30.6583C121.71 30.6583 120.921 30.4183 120.292 29.9383C119.662 29.4583 119.294 28.8076 119.188 27.9863H120.564C120.649 28.4023 120.868 28.765 121.22 29.0743C121.582 29.373 122.068 29.5223 122.676 29.5223C123.241 29.5223 123.657 29.405 123.924 29.1703C124.19 28.925 124.324 28.637 124.324 28.3063C124.324 27.8263 124.148 27.5063 123.796 27.3463C123.454 27.1863 122.969 27.0423 122.34 26.9143C121.913 26.829 121.486 26.7063 121.06 26.5463C120.633 26.3863 120.276 26.1623 119.988 25.8743C119.7 25.5756 119.556 25.1863 119.556 24.7063C119.556 24.013 119.812 23.4476 120.324 23.0103C120.846 22.5623 121.55 22.3383 122.436 22.3383C123.278 22.3383 123.966 22.5516 124.5 22.9783C125.044 23.3943 125.358 23.9916 125.444 24.7703H124.116C124.062 24.365 123.886 24.0503 123.588 23.8263C123.3 23.5916 122.91 23.4743 122.42 23.4743C121.94 23.4743 121.566 23.5756 121.3 23.7783C121.044 23.981 120.916 24.2476 120.916 24.5783C120.916 24.8983 121.081 25.149 121.412 25.3303C121.753 25.5116 122.212 25.6663 122.788 25.7943C123.278 25.901 123.742 26.0343 124.18 26.1943C124.628 26.3436 124.99 26.573 125.268 26.8823C125.556 27.181 125.7 27.6183 125.7 28.1943C125.71 28.909 125.438 29.501 124.884 29.9703C124.34 30.429 123.598 30.6583 122.66 30.6583Z" fill="#859395"/>
<circle cx="227" cy="25.4663" r="14" fill="#FFB624"/>
<g clip-path="url(#clip0_10780_21)">
<path d="M234.782 24.9402L230.021 20.1788C229.73 19.8883 229.259 19.8883 228.969 20.1788C228.678 20.4694 228.678 20.9404 228.969 21.231L232.46 24.7223H219.744C219.333 24.7223 219 25.0554 219 25.4662C219 25.877 219.333 26.2102 219.744 26.2102H232.46L228.969 29.7015C228.678 29.9921 228.678 30.4631 228.969 30.7536C229.114 30.8988 229.304 30.9715 229.495 30.9715C229.685 30.9715 229.876 30.8988 230.021 30.7536L234.782 25.9923C235.073 25.7017 235.073 25.2307 234.782 24.9402Z" fill="white"/>
</g>
<defs>
<clipPath id="clip0_10780_21">
<rect width="16" height="16" fill="white" transform="translate(219 17.4663)"/>
</clipPath>
</defs>
</svg>
