<svg width="473" height="68" viewBox="0 0 473 68" fill="none" xmlns="http://www.w3.org/2000/svg">
<rect x="0.501953" y="0.876221" width="471.979" height="67" fill="white"/>
<path d="M47.2016 39.3665V28.1665H54.1296V29.2705H48.5456V33.1745H53.6496V34.2625H48.5456V38.2625H54.1296V39.3665H47.2016ZM56.1528 39.3665V31.4305H57.3688L57.4488 32.8545C57.7048 32.3531 58.0728 31.9585 58.5528 31.6705C59.0328 31.3825 59.5768 31.2385 60.1848 31.2385C61.1235 31.2385 61.8702 31.5265 62.4248 32.1025C62.9902 32.6678 63.2728 33.5425 63.2728 34.7265V39.3665H61.9288V34.8705C61.9288 33.2171 61.2462 32.3905 59.8808 32.3905C59.1982 32.3905 58.6275 32.6411 58.1688 33.1425C57.7208 33.6331 57.4968 34.3371 57.4968 35.2545V39.3665H56.1528ZM68.4451 39.3665C67.7197 39.3665 67.1491 39.1905 66.7331 38.8385C66.3171 38.4865 66.1091 37.8518 66.1091 36.9345V32.5665H64.7331V31.4305H66.1091L66.2851 29.5265H67.4531V31.4305H69.7891V32.5665H67.4531V36.9345C67.4531 37.4358 67.5544 37.7771 67.7571 37.9585C67.9597 38.1291 68.3171 38.2145 68.8291 38.2145H69.6611V39.3665H68.4451ZM74.8458 39.5585C74.0885 39.5585 73.4165 39.3878 72.8298 39.0465C72.2432 38.6945 71.7792 38.2091 71.4378 37.5905C71.1072 36.9718 70.9418 36.2411 70.9418 35.3985C70.9418 34.5665 71.1072 33.8411 71.4378 33.2225C71.7685 32.5931 72.2272 32.1078 72.8138 31.7665C73.4112 31.4145 74.0992 31.2385 74.8778 31.2385C75.6458 31.2385 76.3072 31.4145 76.8618 31.7665C77.4272 32.1078 77.8592 32.5611 78.1578 33.1265C78.4565 33.6918 78.6058 34.2998 78.6058 34.9505C78.6058 35.0678 78.6005 35.1851 78.5898 35.3025C78.5898 35.4198 78.5898 35.5531 78.5898 35.7025H72.2698C72.3018 36.3105 72.4405 36.8171 72.6858 37.2225C72.9418 37.6171 73.2565 37.9158 73.6298 38.1185C74.0138 38.3211 74.4192 38.4225 74.8458 38.4225C75.4005 38.4225 75.8645 38.2945 76.2378 38.0385C76.6112 37.7825 76.8832 37.4358 77.0538 36.9985H78.3818C78.1685 37.7345 77.7578 38.3478 77.1498 38.8385C76.5525 39.3185 75.7845 39.5585 74.8458 39.5585ZM74.8458 32.3745C74.2058 32.3745 73.6352 32.5718 73.1338 32.9665C72.6432 33.3505 72.3605 33.9158 72.2858 34.6625H77.2778C77.2458 33.9478 77.0005 33.3878 76.5418 32.9825C76.0832 32.5771 75.5178 32.3745 74.8458 32.3745ZM80.3872 39.3665V31.4305H81.6032L81.7152 32.9505C81.9605 32.4278 82.3339 32.0118 82.8352 31.7025C83.3365 31.3931 83.9552 31.2385 84.6912 31.2385V32.6465H84.3232C83.8539 32.6465 83.4219 32.7318 83.0272 32.9025C82.6325 33.0625 82.3179 33.3398 82.0832 33.7345C81.8485 34.1291 81.7312 34.6731 81.7312 35.3665V39.3665H80.3872ZM91.2981 42.8865L93.2661 38.5985H92.8021L89.6501 31.4305H91.1061L93.7301 37.6065L96.5141 31.4305H97.9061L92.7061 42.8865H91.2981ZM102.191 39.5585C101.444 39.5585 100.772 39.3878 100.175 39.0465C99.5774 38.7051 99.1027 38.2251 98.7507 37.6065C98.4094 36.9771 98.2387 36.2411 98.2387 35.3985C98.2387 34.5558 98.4147 33.8251 98.7667 33.2065C99.1187 32.5771 99.5934 32.0918 100.191 31.7505C100.799 31.4091 101.476 31.2385 102.223 31.2385C102.969 31.2385 103.641 31.4091 104.239 31.7505C104.836 32.0918 105.305 32.5771 105.647 33.2065C105.999 33.8251 106.175 34.5558 106.175 35.3985C106.175 36.2411 105.999 36.9771 105.647 37.6065C105.295 38.2251 104.815 38.7051 104.207 39.0465C103.609 39.3878 102.937 39.5585 102.191 39.5585ZM102.191 38.4065C102.649 38.4065 103.076 38.2945 103.471 38.0705C103.865 37.8465 104.185 37.5105 104.431 37.0625C104.676 36.6145 104.799 36.0598 104.799 35.3985C104.799 34.7371 104.676 34.1825 104.431 33.7345C104.196 33.2865 103.881 32.9505 103.487 32.7265C103.092 32.5025 102.671 32.3905 102.223 32.3905C101.764 32.3905 101.337 32.5025 100.943 32.7265C100.548 32.9505 100.228 33.2865 99.9827 33.7345C99.7374 34.1825 99.6147 34.7371 99.6147 35.3985C99.6147 36.0598 99.7374 36.6145 99.9827 37.0625C100.228 37.5105 100.543 37.8465 100.927 38.0705C101.321 38.2945 101.743 38.4065 102.191 38.4065ZM110.939 39.5585C110.001 39.5585 109.254 39.2758 108.699 38.7105C108.145 38.1345 107.867 37.2545 107.867 36.0705V31.4305H109.211V35.9265C109.211 37.5798 109.889 38.4065 111.243 38.4065C111.937 38.4065 112.507 38.1611 112.955 37.6705C113.414 37.1691 113.643 36.4598 113.643 35.5425V31.4305H114.987V39.3665H113.771L113.675 37.9425C113.43 38.4438 113.062 38.8385 112.571 39.1265C112.091 39.4145 111.547 39.5585 110.939 39.5585ZM117.2 39.3665V31.4305H118.416L118.528 32.9505C118.773 32.4278 119.146 32.0118 119.648 31.7025C120.149 31.3931 120.768 31.2385 121.504 31.2385V32.6465H121.136C120.666 32.6465 120.234 32.7318 119.84 32.9025C119.445 33.0625 119.13 33.3398 118.896 33.7345C118.661 34.1291 118.544 34.6731 118.544 35.3665V39.3665H117.2ZM130.815 39.5585C130.057 39.5585 129.385 39.3878 128.799 39.0465C128.212 38.6945 127.748 38.2091 127.407 37.5905C127.076 36.9718 126.911 36.2411 126.911 35.3985C126.911 34.5665 127.076 33.8411 127.407 33.2225C127.737 32.5931 128.196 32.1078 128.783 31.7665C129.38 31.4145 130.068 31.2385 130.847 31.2385C131.615 31.2385 132.276 31.4145 132.831 31.7665C133.396 32.1078 133.828 32.5611 134.127 33.1265C134.425 33.6918 134.575 34.2998 134.575 34.9505C134.575 35.0678 134.569 35.1851 134.559 35.3025C134.559 35.4198 134.559 35.5531 134.559 35.7025H128.239C128.271 36.3105 128.409 36.8171 128.655 37.2225C128.911 37.6171 129.225 37.9158 129.599 38.1185C129.983 38.3211 130.388 38.4225 130.815 38.4225C131.369 38.4225 131.833 38.2945 132.207 38.0385C132.58 37.7825 132.852 37.4358 133.023 36.9985H134.351C134.137 37.7345 133.727 38.3478 133.119 38.8385C132.521 39.3185 131.753 39.5585 130.815 39.5585ZM130.815 32.3745C130.175 32.3745 129.604 32.5718 129.103 32.9665C128.612 33.3505 128.329 33.9158 128.255 34.6625H133.247C133.215 33.9478 132.969 33.3878 132.511 32.9825C132.052 32.5771 131.487 32.3745 130.815 32.3745ZM136.356 39.3665V31.4305H137.572L137.668 32.5825C137.924 32.1558 138.265 31.8251 138.692 31.5905C139.119 31.3558 139.599 31.2385 140.132 31.2385C140.761 31.2385 141.3 31.3665 141.748 31.6225C142.207 31.8785 142.559 32.2678 142.804 32.7905C143.081 32.3105 143.46 31.9318 143.94 31.6545C144.431 31.3771 144.959 31.2385 145.524 31.2385C146.473 31.2385 147.231 31.5265 147.796 32.1025C148.361 32.6678 148.644 33.5425 148.644 34.7265V39.3665H147.316V34.8705C147.316 34.0491 147.151 33.4305 146.82 33.0145C146.489 32.5985 146.015 32.3905 145.396 32.3905C144.756 32.3905 144.223 32.6411 143.796 33.1425C143.38 33.6331 143.172 34.3371 143.172 35.2545V39.3665H141.828V34.8705C141.828 34.0491 141.663 33.4305 141.332 33.0145C141.001 32.5985 140.527 32.3905 139.908 32.3905C139.279 32.3905 138.751 32.6411 138.324 33.1425C137.908 33.6331 137.7 34.3371 137.7 35.2545V39.3665H136.356ZM153.308 39.5585C152.647 39.5585 152.098 39.4465 151.66 39.2225C151.223 38.9985 150.898 38.6998 150.684 38.3265C150.471 37.9531 150.364 37.5478 150.364 37.1105C150.364 36.2998 150.674 35.6758 151.292 35.2385C151.911 34.8011 152.754 34.5825 153.82 34.5825H155.964V34.4865C155.964 33.7931 155.783 33.2705 155.42 32.9185C155.058 32.5558 154.572 32.3745 153.964 32.3745C153.442 32.3745 152.988 32.5078 152.604 32.7745C152.231 33.0305 151.996 33.4091 151.9 33.9105H150.524C150.578 33.3345 150.77 32.8491 151.1 32.4545C151.442 32.0598 151.863 31.7611 152.364 31.5585C152.866 31.3451 153.399 31.2385 153.964 31.2385C155.074 31.2385 155.906 31.5371 156.46 32.1345C157.026 32.7211 157.308 33.5051 157.308 34.4865V39.3665H156.108L156.028 37.9425C155.804 38.3905 155.474 38.7745 155.036 39.0945C154.61 39.4038 154.034 39.5585 153.308 39.5585ZM153.516 38.4225C154.028 38.4225 154.466 38.2891 154.828 38.0225C155.202 37.7558 155.484 37.4091 155.676 36.9825C155.868 36.5558 155.964 36.1078 155.964 35.6385V35.6225H153.932C153.143 35.6225 152.583 35.7611 152.252 36.0385C151.932 36.3051 151.772 36.6411 151.772 37.0465C151.772 37.4625 151.922 37.7985 152.22 38.0545C152.53 38.2998 152.962 38.4225 153.516 38.4225ZM160.141 29.6705C159.874 29.6705 159.65 29.5851 159.469 29.4145C159.298 29.2331 159.213 29.0091 159.213 28.7425C159.213 28.4865 159.298 28.2731 159.469 28.1025C159.65 27.9318 159.874 27.8465 160.141 27.8465C160.397 27.8465 160.615 27.9318 160.797 28.1025C160.978 28.2731 161.069 28.4865 161.069 28.7425C161.069 29.0091 160.978 29.2331 160.797 29.4145C160.615 29.5851 160.397 29.6705 160.141 29.6705ZM159.469 39.3665V31.4305H160.813V39.3665H159.469ZM163.153 39.3665V27.8465H164.497V39.3665H163.153Z" fill="#BABABA"/>
<g clip-path="url(#clip0_10780_190)">
<path d="M28.623 34.4484L34.017 37.8584V30.8944L28.623 34.4484Z" fill="#7F7F7F"/>
<path d="M18.0176 30.8944V37.8584L23.4116 34.4484L18.0176 30.8944Z" fill="#7F7F7F"/>
<path d="M33.0169 28.8665H19.0169C18.5179 28.8665 18.1219 29.2385 18.0469 29.7175L26.0169 34.9685L33.9869 29.7175C33.9119 29.2385 33.5159 28.8665 33.0169 28.8665Z" fill="#7F7F7F"/>
<path d="M27.7068 35.0525L26.2918 35.9845C26.2078 36.0395 26.1128 36.0665 26.0168 36.0665C25.9208 36.0665 25.8258 36.0395 25.7418 35.9845L24.3268 35.0515L18.0488 39.0225C18.1258 39.4975 18.5198 39.8665 19.0168 39.8665H33.0168C33.5138 39.8665 33.9078 39.4975 33.9848 39.0225L27.7068 35.0525Z" fill="#7F7F7F"/>
</g>
<rect x="327.977" y="7.86646" width="125.319" height="52" fill="#305F64"/>
<path d="M360.273 38.8665V27.6665H364.129C365.014 27.6665 365.739 27.8158 366.305 28.1145C366.881 28.4131 367.307 28.8185 367.585 29.3305C367.862 29.8318 368.001 30.3918 368.001 31.0105C368.001 31.7038 367.814 32.3331 367.441 32.8985C367.078 33.4638 366.507 33.8691 365.729 34.1145L368.113 38.8665H366.145L363.969 34.3545H361.969V38.8665H360.273ZM361.969 33.0745H364.033C364.801 33.0745 365.361 32.8878 365.713 32.5145C366.075 32.1411 366.257 31.6558 366.257 31.0585C366.257 30.4611 366.081 29.9865 365.729 29.6345C365.377 29.2718 364.806 29.0905 364.017 29.0905H361.969V33.0745ZM373.171 39.0585C372.392 39.0585 371.699 38.8878 371.091 38.5465C370.493 38.1945 370.024 37.7091 369.683 37.0905C369.341 36.4718 369.171 35.7518 369.171 34.9305C369.171 34.0985 369.336 33.3678 369.667 32.7385C370.008 32.1091 370.477 31.6185 371.075 31.2665C371.683 30.9145 372.387 30.7385 373.187 30.7385C373.965 30.7385 374.643 30.9145 375.219 31.2665C375.795 31.6078 376.243 32.0665 376.563 32.6425C376.883 33.2185 377.043 33.8531 377.043 34.5465C377.043 34.6531 377.037 34.7705 377.027 34.8985C377.027 35.0158 377.021 35.1491 377.011 35.2985H370.835C370.888 36.0665 371.139 36.6531 371.587 37.0585C372.045 37.4531 372.573 37.6505 373.171 37.6505C373.651 37.6505 374.051 37.5438 374.371 37.3305C374.701 37.1065 374.947 36.8078 375.107 36.4345H376.803C376.589 37.1811 376.163 37.8051 375.523 38.3065C374.893 38.8078 374.109 39.0585 373.171 39.0585ZM373.171 32.1305C372.605 32.1305 372.104 32.3011 371.667 32.6425C371.229 32.9731 370.963 33.4745 370.867 34.1465H375.347C375.315 33.5278 375.096 33.0371 374.691 32.6745C374.285 32.3118 373.779 32.1305 373.171 32.1305ZM381.941 36.4345C381.525 36.4345 381.141 36.3865 380.789 36.2905L380.101 36.9625C380.218 37.0371 380.362 37.1011 380.533 37.1545C380.704 37.2078 380.944 37.2558 381.253 37.2985C381.562 37.3411 381.984 37.3838 382.517 37.4265C383.573 37.5225 384.336 37.7785 384.805 38.1945C385.274 38.5998 385.509 39.1438 385.509 39.8265C385.509 40.2958 385.381 40.7385 385.125 41.1545C384.88 41.5811 384.49 41.9225 383.957 42.1785C383.434 42.4451 382.762 42.5785 381.941 42.5785C380.832 42.5785 379.93 42.3651 379.237 41.9385C378.554 41.5225 378.213 40.8878 378.213 40.0345C378.213 39.7038 378.298 39.3731 378.469 39.0425C378.65 38.7225 378.933 38.4185 379.317 38.1305C379.093 38.0345 378.896 37.9331 378.725 37.8265C378.565 37.7091 378.421 37.5918 378.293 37.4745V37.0905L379.669 35.6825C379.05 35.1491 378.741 34.4505 378.741 33.5865C378.741 33.0638 378.864 32.5891 379.109 32.1625C379.365 31.7251 379.733 31.3785 380.213 31.1225C380.693 30.8665 381.269 30.7385 381.941 30.7385C382.389 30.7385 382.805 30.8025 383.189 30.9305H386.149V32.0505L384.741 32.1305C384.997 32.5678 385.125 33.0531 385.125 33.5865C385.125 34.1198 384.997 34.5998 384.741 35.0265C384.496 35.4531 384.133 35.7945 383.653 36.0505C383.184 36.3065 382.613 36.4345 381.941 36.4345ZM381.941 35.1065C382.432 35.1065 382.826 34.9785 383.125 34.7225C383.434 34.4558 383.589 34.0825 383.589 33.6025C383.589 33.1118 383.434 32.7385 383.125 32.4825C382.826 32.2265 382.432 32.0985 381.941 32.0985C381.44 32.0985 381.034 32.2265 380.725 32.4825C380.426 32.7385 380.277 33.1118 380.277 33.6025C380.277 34.0825 380.426 34.4558 380.725 34.7225C381.034 34.9785 381.44 35.1065 381.941 35.1065ZM379.813 39.8745C379.813 40.3331 380.016 40.6745 380.421 40.8985C380.826 41.1331 381.333 41.2505 381.941 41.2505C382.528 41.2505 383.002 41.1225 383.365 40.8665C383.728 40.6211 383.909 40.2905 383.909 39.8745C383.909 39.5651 383.786 39.2985 383.541 39.0745C383.296 38.8611 382.832 38.7278 382.149 38.6745C381.637 38.6425 381.184 38.5945 380.789 38.5305C380.416 38.7331 380.16 38.9518 380.021 39.1865C379.882 39.4211 379.813 39.6505 379.813 39.8745ZM388.622 29.4265C388.302 29.4265 388.035 29.3305 387.822 29.1385C387.619 28.9358 387.518 28.6851 387.518 28.3865C387.518 28.0878 387.619 27.8425 387.822 27.6505C388.035 27.4478 388.302 27.3465 388.622 27.3465C388.942 27.3465 389.203 27.4478 389.406 27.6505C389.619 27.8425 389.726 28.0878 389.726 28.3865C389.726 28.6851 389.619 28.9358 389.406 29.1385C389.203 29.3305 388.942 29.4265 388.622 29.4265ZM387.774 38.8665V30.9305H389.47V38.8665H387.774ZM394.877 39.0585C393.874 39.0585 393.047 38.8131 392.397 38.3225C391.746 37.8318 391.373 37.1811 391.277 36.3705H392.989C393.074 36.7331 393.277 37.0478 393.597 37.3145C393.917 37.5705 394.338 37.6985 394.861 37.6985C395.373 37.6985 395.746 37.5918 395.981 37.3785C396.215 37.1651 396.333 36.9198 396.333 36.6425C396.333 36.2371 396.167 35.9651 395.837 35.8265C395.517 35.6771 395.069 35.5438 394.493 35.4265C394.045 35.3305 393.597 35.2025 393.149 35.0425C392.711 34.8825 392.343 34.6585 392.045 34.3705C391.757 34.0718 391.613 33.6718 391.613 33.1705C391.613 32.4771 391.879 31.9011 392.413 31.4425C392.946 30.9731 393.693 30.7385 394.653 30.7385C395.538 30.7385 396.253 30.9518 396.797 31.3785C397.351 31.8051 397.677 32.4078 397.773 33.1865H396.141C396.087 32.8451 395.927 32.5785 395.661 32.3865C395.405 32.1945 395.058 32.0985 394.621 32.0985C394.194 32.0985 393.863 32.1891 393.629 32.3705C393.394 32.5411 393.277 32.7651 393.277 33.0425C393.277 33.3198 393.437 33.5385 393.757 33.6985C394.087 33.8585 394.519 34.0025 395.053 34.1305C395.586 34.2478 396.077 34.3865 396.525 34.5465C396.983 34.6958 397.351 34.9198 397.629 35.2185C397.906 35.5171 398.045 35.9545 398.045 36.5305C398.055 37.2558 397.773 37.8585 397.197 38.3385C396.631 38.8185 395.858 39.0585 394.877 39.0585ZM402.927 38.8665C402.149 38.8665 401.53 38.6798 401.071 38.3065C400.613 37.9225 400.383 37.2451 400.383 36.2745V32.3545H399.023V30.9305H400.383L400.591 28.9145H402.079V30.9305H404.319V32.3545H402.079V36.2745C402.079 36.7118 402.17 37.0158 402.351 37.1865C402.543 37.3465 402.869 37.4265 403.327 37.4265H404.239V38.8665H402.927ZM409.577 39.0585C408.798 39.0585 408.105 38.8878 407.497 38.5465C406.9 38.1945 406.43 37.7091 406.089 37.0905C405.748 36.4718 405.577 35.7518 405.577 34.9305C405.577 34.0985 405.742 33.3678 406.073 32.7385C406.414 32.1091 406.884 31.6185 407.481 31.2665C408.089 30.9145 408.793 30.7385 409.593 30.7385C410.372 30.7385 411.049 30.9145 411.625 31.2665C412.201 31.6078 412.649 32.0665 412.969 32.6425C413.289 33.2185 413.449 33.8531 413.449 34.5465C413.449 34.6531 413.444 34.7705 413.433 34.8985C413.433 35.0158 413.428 35.1491 413.417 35.2985H407.241C407.294 36.0665 407.545 36.6531 407.993 37.0585C408.452 37.4531 408.98 37.6505 409.577 37.6505C410.057 37.6505 410.457 37.5438 410.777 37.3305C411.108 37.1065 411.353 36.8078 411.513 36.4345H413.209C412.996 37.1811 412.569 37.8051 411.929 38.3065C411.3 38.8078 410.516 39.0585 409.577 39.0585ZM409.577 32.1305C409.012 32.1305 408.51 32.3011 408.073 32.6425C407.636 32.9731 407.369 33.4745 407.273 34.1465H411.753C411.721 33.5278 411.502 33.0371 411.097 32.6745C410.692 32.3118 410.185 32.1305 409.577 32.1305ZM415.209 38.8665V30.9305H416.729L416.873 32.4345C417.15 31.9118 417.534 31.5011 418.025 31.2025C418.526 30.8931 419.129 30.7385 419.833 30.7385V32.5145H419.369C418.899 32.5145 418.478 32.5945 418.105 32.7545C417.742 32.9038 417.449 33.1651 417.225 33.5385C417.011 33.9011 416.905 34.4078 416.905 35.0585V38.8665H415.209Z" fill="white"/>
<defs>
<clipPath id="clip0_10780_190">
<rect width="16" height="16" fill="white" transform="translate(18.0176 26.3665)"/>
</clipPath>
</defs>
</svg>
